<svg xmlns="http://www.w3.org/2000/svg" viewBox="0 0 512 512" fill="none">
  <defs>
    <linearGradient id="grad" x1="0%" y1="0%" x2="100%" y2="100%">
      <stop offset="0%" style="stop-color:#a855f7"/>
      <stop offset="100%" style="stop-color:#ec4899"/>
    </linearGradient>
    <linearGradient id="grad-dark" x1="0%" y1="0%" x2="100%" y2="100%">
      <stop offset="0%" style="stop-color:#7c3aed"/>
      <stop offset="100%" style="stop-color:#db2777"/>
    </linearGradient>
  </defs>
  <!-- Shield outline with gradient -->
  <path d="M256 32C176 32 96 80 48 112v192c0 128 80 176 208 224 128-48 208-96 208-224V112C416 80 336 32 256 32z" fill="url(#grad)"/>
  <!-- Inner shield white -->
  <path d="M256 72C188 72 120 112 80 140v156c0 104 64 144 176 184 112-40 176-80 176-184V140C392 112 324 72 256 72z" fill="white"/>
  <!-- Lock body -->
  <rect x="200" y="256" width="112" height="96" rx="16" fill="url(#grad-dark)"/>
  <!-- Lock shackle -->
  <path d="M224 256v-48c0-35.35 14.33-64 32-64s32 28.65 32 64v48" stroke="url(#grad-dark)" stroke-width="24" stroke-linecap="round" fill="none"/>
  <!-- Keyhole -->
  <circle cx="256" cy="296" r="16" fill="white"/>
  <rect x="248" y="304" width="16" height="28" rx="4" fill="white"/>
</svg>
